<?xml version="1.0" standalone="no"?><svg xmlns="http://www.w3.org/2000/svg" viewBox="0 0 1440 320"><path fill="#ffd700" fill-opacity="1" d="M0,256L8.9,234.7C17.8,213,36,171,53,176C71.1,181,89,235,107,245.3C124.4,256,142,224,160,192C177.8,160,196,128,213,128C231.1,128,249,160,267,160C284.4,160,302,128,320,138.7C337.8,149,356,203,373,229.3C391.1,256,409,256,427,256C444.4,256,462,256,480,224C497.8,192,516,128,533,106.7C551.1,85,569,107,587,122.7C604.4,139,622,149,640,149.3C657.8,149,676,139,693,154.7C711.1,171,729,213,747,218.7C764.4,224,782,192,800,170.7C817.8,149,836,139,853,138.7C871.1,139,889,149,907,160C924.4,171,942,181,960,170.7C977.8,160,996,128,1013,138.7C1031.1,149,1049,203,1067,218.7C1084.4,235,1102,213,1120,186.7C1137.8,160,1156,128,1173,112C1191.1,96,1209,96,1227,128C1244.4,160,1262,224,1280,213.3C1297.8,203,1316,117,1333,85.3C1351.1,53,1369,75,1387,74.7C1404.4,75,1422,53,1431,42.7L1440,32L1440,0L1431.1,0C1422.2,0,1404,0,1387,0C1368.9,0,1351,0,1333,0C1315.6,0,1298,0,1280,0C1262.2,0,1244,0,1227,0C1208.9,0,1191,0,1173,0C1155.6,0,1138,0,1120,0C1102.2,0,1084,0,1067,0C1048.9,0,1031,0,1013,0C995.6,0,978,0,960,0C942.2,0,924,0,907,0C888.9,0,871,0,853,0C835.6,0,818,0,800,0C782.2,0,764,0,747,0C728.9,0,711,0,693,0C675.6,0,658,0,640,0C622.2,0,604,0,587,0C568.9,0,551,0,533,0C515.6,0,498,0,480,0C462.2,0,444,0,427,0C408.9,0,391,0,373,0C355.6,0,338,0,320,0C302.2,0,284,0,267,0C248.9,0,231,0,213,0C195.6,0,178,0,160,0C142.2,0,124,0,107,0C88.9,0,71,0,53,0C35.6,0,18,0,9,0L0,0Z"></path></svg>